<svg xmlns="http://www.w3.org/2000/svg" viewBox="0 0 1280 760" width="100%" height="100%" style="background-color: #fafbfc; font-family: -apple-system, BlinkMacSystemFont, 'Segoe UI', Roboto, Helvetica, Arial, sans-serif;">
  <defs>
    <!-- Background Dot Pattern matching reference -->
    <pattern id="dot-grid" x="0" y="0" width="24" height="24" patternUnits="userSpaceOnUse">
      <circle cx="2" cy="2" r="1" fill="#cbd5e1" opacity="0.6" />
    </pattern>

    <!-- Markers for Flow Arrows -->
    <marker id="arr-red" markerWidth="9" markerHeight="7" refX="8" refY="3.5" orient="auto">
      <polygon points="0 0, 9 3.5, 0 7" fill="#ef4444" />
    </marker>
    <marker id="arr-blue" markerWidth="9" markerHeight="7" refX="8" refY="3.5" orient="auto">
      <polygon points="0 0, 9 3.5, 0 7" fill="#2563eb" />
    </marker>
    <marker id="arr-orange" markerWidth="9" markerHeight="7" refX="8" refY="3.5" orient="auto">
      <polygon points="0 0, 9 3.5, 0 7" fill="#f97316" />
    </marker>
    <marker id="arr-green" markerWidth="9" markerHeight="7" refX="8" refY="3.5" orient="auto">
      <polygon points="0 0, 9 3.5, 0 7" fill="#16a34a" />
    </marker>

    <!-- Box Dropshadow -->
    <filter id="card-shadow" x="-3%" y="-3%" width="106%" height="108%">
      <feDropShadow dx="0" dy="2" stdDeviation="4" flood-color="#0f172a" flood-opacity="0.06" />
    </filter>

    <!-- Gradients -->
    <linearGradient id="cloud-grad" x1="0%" y1="0%" x2="100%" y2="100%">
      <stop offset="0%" stop-color="#ffffff" />
      <stop offset="100%" stop-color="#f1f5f9" />
    </linearGradient>
    <linearGradient id="chip-grad" x1="0%" y1="0%" x2="100%" y2="100%">
      <stop offset="0%" stop-color="#fff7ed" />
      <stop offset="100%" stop-color="#fed7aa" />
    </linearGradient>
  </defs>

  <!-- Background grid -->
  <rect width="100%" height="100%" fill="url(#dot-grid)" />

  <!-- ================= OUTER BOUNDARY: GREEN CONTAINER ================= -->
  <rect x="25" y="25" width="1230" height="710" rx="14" fill="#ffffff" stroke="#16a34a" stroke-width="3" filter="url(#card-shadow)" />
  
  <!-- Outer Header Title -->
  <text x="55" y="70" font-size="24" font-weight="800" fill="#16a34a" letter-spacing="0.5">DB-Migration-Agent</text>
  <text x="55" y="88" font-size="11" font-weight="600" fill="#64748b">Dell Boomi Legacy Database &rarr; Database V2 Automated Modernization Suite</text>

  <!-- Top Center: Boomi Agent UI (User & Web Dashboard) -->
  <g transform="translate(470, 32)">
    <!-- User Avatar & Monitor -->
    <circle cx="22" cy="14" r="12" fill="#0284c7" />
    <circle cx="22" cy="11" r="5" fill="#ffffff" />
    <path d="M13 22 C13 18, 31 18, 31 22 Z" fill="#ffffff" />
    <rect x="4" y="24" width="36" height="20" rx="2" fill="#334155" />
    <rect x="7" y="26" width="30" height="14" rx="1" fill="#38bdf8" />
    <polygon points="18,44 26,44 28,47 16,47" fill="#334155" />
    <text x="22" y="60" font-size="12" font-weight="800" fill="#0f172a" text-anchor="middle">Boomi Agent UI</text>
    <text x="22" y="72" font-size="9.5" font-weight="600" fill="#64748b" text-anchor="middle">Migration Web Hub (localhost:8000)</text>
  </g>

  <!-- Top Right: Legend (Exact Match to Reference Style) -->
  <g transform="translate(930, 40)">
    <!-- Red Flow -->
    <line x1="0" y1="8" x2="45" y2="8" stroke="#ef4444" stroke-width="2.5" stroke-dasharray="5,4" marker-end="url(#arr-red)" />
    <text x="56" y="12" font-size="11" font-weight="600" fill="#334155">Primary Flow</text>

    <!-- Blue Flow -->
    <line x1="0" y1="28" x2="45" y2="28" stroke="#2563eb" stroke-width="2.5" stroke-dasharray="5,4" marker-end="url(#arr-blue)" />
    <text x="56" y="32" font-size="11" font-weight="600" fill="#334155">Discovery Flow</text>

    <!-- Orange Flow -->
    <line x1="0" y1="48" x2="45" y2="48" stroke="#f97316" stroke-width="2.5" stroke-dasharray="5,4" marker-end="url(#arr-orange)" />
    <text x="56" y="52" font-size="11" font-weight="600" fill="#334155">Transformation Flow</text>
  </g>

  <!-- ================= MAIN INNER BOX: RED BORDER (AI-ENGINE) ================= -->
  <rect x="45" y="110" width="1190" height="605" rx="12" fill="#ffffff" stroke="#ef4444" stroke-width="2.5" />
  
  <!-- Left Header Icon & Label: AI-Engine -->
  <g transform="translate(65, 125)">
    <circle cx="16" cy="16" r="14" fill="#2563eb" />
    <text x="16" y="21" font-size="12" font-weight="900" fill="#ffffff" text-anchor="middle">AI</text>
    <text x="38" y="23" font-size="20" font-weight="800" fill="#2563eb">AI-Engine</text>
    <text x="38" y="37" font-size="10" font-weight="600" fill="#64748b">FastAPI Migration Hub &amp; Orchestrator</text>
  </g>

  <!-- ================= LEFT COLUMN: RUNTIME & PLATFORM ================= -->
  
  <!-- Boomi Runtime Engine (Desktop / Server Monitor Icon) -->
  <g transform="translate(195, 225)">
    <rect x="0" y="0" width="105" height="75" rx="6" fill="#ffffff" stroke="#334155" stroke-width="2.5" filter="url(#card-shadow)" />
    <rect x="7" y="7" width="91" height="61" rx="3" fill="#f8fafc" />
    <!-- Stand -->
    <rect x="44" y="75" width="17" height="20" fill="#334155" />
    <polygon points="30,95 75,95 70,91 35,91" fill="#334155" />
    <!-- Atom Core graphic inside monitor -->
    <circle cx="52" cy="37" r="16" fill="#fee2e2" stroke="#ef4444" stroke-width="1.5" />
    <circle cx="52" cy="37" r="5" fill="#ef4444" />
    <ellipse cx="52" cy="37" rx="18" ry="7" fill="none" stroke="#ef4444" stroke-width="1.2" transform="rotate(30 52 37)" />
    <ellipse cx="52" cy="37" rx="18" ry="7" fill="none" stroke="#ef4444" stroke-width="1.2" transform="rotate(-30 52 37)" />
    
    <text x="52" y="116" font-size="13" font-weight="800" fill="#0f172a" text-anchor="middle">Boomi Runtime Engine</text>
    <text x="52" y="130" font-size="10" font-weight="600" fill="#64748b" text-anchor="middle">Migration Tools &amp; Client</text>
    <text x="52" y="142" font-size="9" font-weight="500" fill="#0284c7" text-anchor="middle">Mode A (Single) &amp; Mode B (Bulk)</text>
  </g>

  <!-- Metadata Exchange Bidirectional Arrows -->
  <g transform="translate(247, 395)">
    <path d="M-12,0 C-12,-14 12,-14 12,0 L12,12" fill="none" stroke="#0f172a" stroke-width="3" />
    <polygon points="7,9 12,19 17,9" fill="#0f172a" />
    <path d="M12,28 C12,42 -12,42 -12,28 L-12,16" fill="none" stroke="#0f172a" stroke-width="3" />
    <polygon points="-7,19 -12,9 -17,19" fill="#0f172a" />
    <text x="0" y="52" font-size="12" font-weight="800" fill="#0f172a" text-anchor="middle">Metadata</text>
    <text x="0" y="66" font-size="12" font-weight="800" fill="#0f172a" text-anchor="middle">Exchange</text>
    <text x="0" y="79" font-size="9.5" font-weight="600" fill="#64748b" text-anchor="middle">Component API</text>
  </g>

  <!-- Boomi Enterprise Platform (Cloud Box) -->
  <g transform="translate(135, 500)">
    <!-- Cloud shape representation -->
    <path d="M 45,55 
             A 32,32 0 0,1 85,20 
             A 40,40 0 0,1 145,20 
             A 32,32 0 0,1 185,55 
             A 24,24 0 0,1 215,78 
             A 25,25 0 0,1 190,105 
             L 40,105 
             A 25,25 0 0,1 15,78 
             A 24,24 0 0,1 45,55 Z" 
          fill="url(#cloud-grad)" stroke="#0284c7" stroke-width="2" filter="url(#card-shadow)" />
    
    <!-- Boomi "b" Logo Circle -->
    <circle cx="62" cy="65" r="18" fill="#0284c7" />
    <text x="62" y="73" font-size="20" font-weight="900" fill="#ffffff" text-anchor="middle">b</text>
    
    <!-- Platform Labels -->
    <text x="90" y="57" font-size="11.5" font-weight="800" fill="#0f172a">Boomi Enterprise Platform</text>
    <text x="90" y="72" font-size="9.5" font-weight="600" fill="#64748b">AtomSphere Platform Services</text>
    <text x="90" y="86" font-size="9" font-weight="700" fill="#16a34a">Branch: dbv2_merging</text>
    <text x="90" y="98" font-size="8.5" font-weight="700" fill="#ef4444">Main Branch Guard: Active 🛡️</text>
  </g>

  <!-- ================= TOP RIGHT: KNOWLEDGE-BASE (BLUE BOX) ================= -->
  <!-- SHOWCASING DISCOVERY, AUDITING & WHERE-USED DEPENDENCY RESOLUTION -->
  <g transform="translate(460, 125)">
    <rect x="0" y="0" width="755" height="215" rx="10" fill="#ffffff" stroke="#2563eb" stroke-width="2.5" />
    <text x="20" y="26" font-size="16" font-weight="800" fill="#2563eb">Knowledge-Base</text>
    <text x="145" y="26" font-size="11" font-weight="600" fill="#64748b">&mdash; Component Discovery, Audit &amp; Where-Used Resolution</text>

    <!-- Top Ingestion Flow: Discovery & Extraction -->
    <g transform="translate(35, 45)">
      
      <!-- Step 1: Data Cleaning (Filtering non-DB connectors) -->
      <g transform="translate(0, 0)">
        <polygon points="26,0 55,14 55,44 26,58 -3,44 -3,14" fill="#eff6ff" stroke="#3b82f6" stroke-width="1.8" />
        <text x="26" y="32" font-size="18" text-anchor="middle">🧹</text>
        <text x="26" y="74" font-size="10" font-weight="700" fill="#0f172a" text-anchor="middle">Data Cleaning</text>
        <text x="26" y="87" font-size="8.5" font-weight="500" fill="#64748b" text-anchor="middle">Isolate Legacy DB</text>
        <text x="26" y="98" font-size="8" font-weight="500" fill="#94a3b8" text-anchor="middle">(Filter Disk/HTTP)</text>
      </g>

      <!-- Connecting Arrow 1 -->
      <path d="M58,29 L82,29" stroke="#3b82f6" stroke-width="2" marker-end="url(#arr-blue)" />

      <!-- Step 2: Indexing (Where-Used Dependency Traversal) -->
      <g transform="translate(90, 0)">
        <polygon points="26,0 55,14 55,44 26,58 -3,44 -3,14" fill="#eff6ff" stroke="#3b82f6" stroke-width="1.8" />
        <text x="26" y="32" font-size="18" text-anchor="middle">🔗</text>
        <text x="26" y="74" font-size="10" font-weight="700" fill="#0f172a" text-anchor="middle">Indexing</text>
        <text x="26" y="87" font-size="8.5" font-weight="500" fill="#64748b" text-anchor="middle">Where-Used Graph</text>
        <text x="26" y="98" font-size="8" font-weight="500" fill="#94a3b8" text-anchor="middle">(Maps/Caches/Procs)</text>
      </g>

      <!-- Connecting Arrow 2 -->
      <path d="M148,29 L172,29" stroke="#3b82f6" stroke-width="2" marker-end="url(#arr-blue)" />

      <!-- Step 3: Storing (Metadata Cache) -->
      <g transform="translate(180, 0)">
        <polygon points="26,0 55,14 55,44 26,58 -3,44 -3,14" fill="#eff6ff" stroke="#3b82f6" stroke-width="1.8" />
        <text x="26" y="32" font-size="18" text-anchor="middle">💾</text>
        <text x="26" y="74" font-size="10" font-weight="700" fill="#0f172a" text-anchor="middle">Storing</text>
        <text x="26" y="87" font-size="8.5" font-weight="500" fill="#64748b" text-anchor="middle">Metadata Cache</text>
        <text x="26" y="98" font-size="8" font-weight="500" fill="#94a3b8" text-anchor="middle">(Folder &amp; Comp IDs)</text>
      </g>
    </g>

    <!-- Center DB Icon Flow -->
    <g transform="translate(370, 70)">
      <path d="M0,18 C22,0 45,0 68,16" stroke="#3b82f6" stroke-width="2" fill="none" marker-end="url(#arr-blue)" />
      
      <!-- Database Cylinder -->
      <g transform="translate(76, 8)">
        <path d="M0,6 C0,2.5 8,0 18,0 C28,0 36,2.5 36,6 L36,30 C36,33.5 28,36 18,36 C8,36 0,33.5 0,30 Z" fill="#eff6ff" stroke="#2563eb" stroke-width="2" />
        <ellipse cx="18" cy="6" rx="18" ry="6" fill="#bfdbfe" stroke="#2563eb" stroke-width="1.5" />
        <path d="M0,14 C0,17.5 8,20 18,20 C28,20 36,17.5 36,14" stroke="#2563eb" stroke-width="1.5" fill="none" />
        <path d="M0,22 C0,25.5 8,28 18,28 C28,28 36,25.5 36,22" stroke="#2563eb" stroke-width="1.5" fill="none" />
        <text x="18" y="47" font-size="8" font-weight="700" fill="#2563eb" text-anchor="middle">Audit DB</text>
      </g>

      <path d="M122,25 C142,40 162,40 180,26" stroke="#3b82f6" stroke-width="2" fill="none" marker-end="url(#arr-blue)" />
    </g>

    <!-- Right Retrieval Flow: Search, Classification & Filtering -->
    <g transform="translate(560, 45)">
      
      <!-- Top Matched Records (Scope Isolation) -->
      <g transform="translate(0, 0)">
        <polygon points="22,0 48,12 48,38 22,50 -4,38 -4,12" fill="#eff6ff" stroke="#3b82f6" stroke-width="1.8" />
        <text x="22" y="28" font-size="16" text-anchor="middle">📋</text>
        <text x="22" y="66" font-size="9.5" font-weight="700" fill="#0f172a" text-anchor="middle">Top Matched</text>
        <text x="22" y="78" font-size="8.5" font-weight="600" fill="#64748b" text-anchor="middle">Records</text>
        <text x="22" y="89" font-size="8" font-weight="500" fill="#94a3b8" text-anchor="middle">(Folder Scoped)</text>
      </g>

      <!-- Filtering (Operation Statements: Dynamic Update / Insert / Get) -->
      <g transform="translate(70, 0)">
        <polygon points="22,0 48,12 48,38 22,50 -4,38 -4,12" fill="#eff6ff" stroke="#3b82f6" stroke-width="1.8" />
        <text x="22" y="28" font-size="16" text-anchor="middle">🌪️</text>
        <text x="22" y="66" font-size="9.5" font-weight="700" fill="#0f172a" text-anchor="middle">Filtering</text>
        <text x="22" y="78" font-size="8.5" font-weight="600" fill="#64748b" text-anchor="middle">Action Classify</text>
        <text x="22" y="89" font-size="8" font-weight="500" fill="#94a3b8" text-anchor="middle">(Update/Insert/Get)</text>
      </g>

      <!-- Indexed Search (Metadata & XML Retrieval) -->
      <g transform="translate(140, 0)">
        <polygon points="22,0 48,12 48,38 22,50 -4,38 -4,12" fill="#eff6ff" stroke="#3b82f6" stroke-width="1.8" />
        <text x="22" y="28" font-size="16" text-anchor="middle">🔍</text>
        <text x="22" y="66" font-size="9.5" font-weight="700" fill="#0f172a" text-anchor="middle">Indexed Search</text>
        <text x="22" y="78" font-size="8.5" font-weight="600" fill="#64748b" text-anchor="middle">Branch XML</text>
        <text x="22" y="89" font-size="8" font-weight="500" fill="#94a3b8" text-anchor="middle">(dbv2_merging)</text>
      </g>
    </g>

    <!-- Bottom Status Strip -->
    <text x="20" y="200" font-size="9.5" font-weight="600" fill="#2563eb">&check; Scans 100% of Legacy Connections, Operations &amp; DB Profiles with Parent Reference Resolution</text>
  </g>

  <!-- ================= BOTTOM RIGHT: AI-REASONING (ORANGE BOX) ================= -->
  <!-- SHOWCASING OUR 6-STEP TRANSFORMATION PIPELINE (CONNECTION, PROFILE, OPERATION, MAP, SHAPES, QA) -->
  <g transform="translate(460, 355)">
    <rect x="0" y="0" width="755" height="345" rx="10" fill="#ffffff" stroke="#f97316" stroke-width="2.5" />
    <text x="20" y="28" font-size="16" font-weight="800" fill="#f97316">AI-Reasoning</text>
    <text x="135" y="28" font-size="11" font-weight="600" fill="#64748b">&mdash; Autonomous Transformation Cycle &amp; DB V2 Assembly</text>

    <!-- Central AI Hub & Chip -->
    <g transform="translate(378, 175)">
      <!-- Outer Hex/Chip -->
      <rect x="-38" y="-38" width="76" height="76" rx="16" fill="url(#chip-grad)" stroke="#f97316" stroke-width="2.5" filter="url(#card-shadow)" />
      <!-- Chip Pins -->
      <line x1="-38" y1="-16" x2="-46" y2="-16" stroke="#f97316" stroke-width="2.5" />
      <line x1="-38" y1="16" x2="-46" y2="16" stroke="#f97316" stroke-width="2.5" />
      <line x1="38" y1="-16" x2="46" y2="-16" stroke="#f97316" stroke-width="2.5" />
      <line x1="38" y1="16" x2="46" y2="16" stroke="#f97316" stroke-width="2.5" />
      <line x1="-16" y1="-38" x2="-16" y2="-46" stroke="#f97316" stroke-width="2.5" />
      <line x1="16" y1="-38" x2="16" y2="-46" stroke="#f97316" stroke-width="2.5" />
      <line x1="-16" y1="38" x2="-16" y2="46" stroke="#f97316" stroke-width="2.5" />
      <line x1="16" y1="38" x2="16" y2="46" stroke="#f97316" stroke-width="2.5" />
      
      <!-- AI Text & Brain -->
      <text x="0" y="5" font-size="24" font-weight="900" fill="#ea580c" text-anchor="middle">AI</text>
      <text x="0" y="19" font-size="8.5" font-weight="800" fill="#c2410c" text-anchor="middle">CORE</text>
    </g>

    <!-- Orbital Cycle of Our Actual 6 DB Migration Stages -->

    <!-- Top: Step 1: Input Processing (Profile.db & SQL Parsing) -->
    <g transform="translate(378, 52)">
      <text x="0" y="-8" font-size="11" font-weight="800" fill="#0f172a" text-anchor="middle">Input Processing</text>
      <text x="0" y="5" font-size="9" font-weight="600" fill="#64748b" text-anchor="middle">Parse Legacy profile.db SQL</text>
      <text x="0" y="17" font-size="8.5" font-weight="500" fill="#ea580c" text-anchor="middle">Fields &amp; Conditions (=, &lt;&gt;, &gt;, &lt;)</text>
      <text x="0" y="42" font-size="22" text-anchor="middle">⚙️</text>
    </g>
    <!-- Arrow 1 -> 2 -->
    <path d="M425,72 C495,80 560,105 595,135" stroke="#f97316" stroke-width="2" stroke-dasharray="4,4" fill="none" marker-end="url(#arr-orange)" />

    <!-- Top-Right: Step 2: Context Building (DB V2 Operation Synthesis) -->
    <g transform="translate(620, 130)">
      <text x="0" y="12" font-size="22" text-anchor="middle">📖</text>
      <text x="0" y="32" font-size="11" font-weight="800" fill="#0f172a" text-anchor="middle">Context Building</text>
      <text x="0" y="46" font-size="9" font-weight="600" fill="#64748b" text-anchor="middle">DB V2 Operation XML</text>
      <text x="0" y="58" font-size="8.5" font-weight="500" fill="#ea580c" text-anchor="middle">objectTypeId, Dynamic Update SQL</text>
    </g>
    <!-- Arrow 2 -> 3 -->
    <path d="M620,200 C620,230 600,260 565,280" stroke="#f97316" stroke-width="2" stroke-dasharray="4,4" fill="none" marker-end="url(#arr-orange)" />

    <!-- Bottom-Right: Step 3: Pattern Recognition (JSON Profile Generation) -->
    <g transform="translate(585, 265)">
      <text x="0" y="12" font-size="22" text-anchor="middle">🕸️</text>
      <text x="0" y="32" font-size="11" font-weight="800" fill="#0f172a" text-anchor="middle">Pattern Recognition</text>
      <text x="0" y="46" font-size="9" font-weight="600" fill="#64748b" text-anchor="middle">JSON Profile Generation</text>
      <text x="0" y="58" font-size="8.5" font-weight="500" fill="#ea580c" text-anchor="middle">Request JSON &amp; Standard DB V2 Resp</text>
    </g>
    <!-- Arrow 3 -> 4 -->
    <path d="M510,312 C460,332 410,332 378,320" stroke="#f97316" stroke-width="2" stroke-dasharray="4,4" fill="none" marker-end="url(#arr-orange)" />

    <!-- Bottom: Step 4: Top Matched Records (Map Re-Wiring) -->
    <g transform="translate(378, 255)">
      <text x="0" y="18" font-size="22" text-anchor="middle">🧠</text>
      <text x="0" y="38" font-size="11" font-weight="800" fill="#0f172a" text-anchor="middle">Top Matched Records</text>
      <text x="0" y="52" font-size="9" font-weight="600" fill="#64748b" text-anchor="middle">Map Element Re-Wiring</text>
      <text x="0" y="64" font-size="8.5" font-weight="500" fill="#ea580c" text-anchor="middle">Remap DB Keys &rarr; JSON Profile Keys</text>
    </g>
    <!-- Arrow 4 -> 5 -->
    <path d="M315,320 C270,330 220,315 175,280" stroke="#f97316" stroke-width="2" stroke-dasharray="4,4" fill="none" marker-end="url(#arr-orange)" />

    <!-- Bottom-Left: Step 5: Cross-Referencing Results (Process Shape Re-wiring) -->
    <g transform="translate(155, 240)">
      <text x="0" y="12" font-size="22" text-anchor="middle">🔀</text>
      <text x="0" y="32" font-size="11" font-weight="800" fill="#0f172a" text-anchor="middle">Cross-Referencing Results</text>
      <text x="0" y="46" font-size="9" font-weight="600" fill="#64748b" text-anchor="middle">Process Shape Reconfiguration</text>
      <text x="0" y="58" font-size="8.5" font-weight="500" fill="#ea580c" text-anchor="middle">connectoraction &rarr; dbv2da-prod</text>
    </g>
    <!-- Arrow 5 -> 6 -->
    <path d="M155,200 C155,165 175,130 210,105" stroke="#f97316" stroke-width="2" stroke-dasharray="4,4" fill="none" marker-end="url(#arr-orange)" />

    <!-- Top-Left: Step 6: Structured Response (Code Review & Branch Commit) -->
    <g transform="translate(185, 95)">
      <text x="0" y="12" font-size="22" text-anchor="middle">📋</text>
      <text x="0" y="32" font-size="11" font-weight="800" fill="#0f172a" text-anchor="middle">Structured Response</text>
      <text x="0" y="46" font-size="9" font-weight="600" fill="#64748b" text-anchor="middle">Peer Review &amp; Excel Audit</text>
      <text x="0" y="58" font-size="8.5" font-weight="500" fill="#ea580c" text-anchor="middle">Multi-sheet Report &amp; Branch Commit</text>
    </g>
    <!-- Arrow 6 -> 1 -->
    <path d="M230,80 C270,62 315,55 340,55" stroke="#f97316" stroke-width="2" stroke-dasharray="4,4" fill="none" marker-end="url(#arr-orange)" />
  </g>

  <!-- ================= INTER-CONTAINER CONNECTING FLOW ARROWS ================= -->
  
  <!-- 1. From UI Down to Boomi Runtime Engine (Red Dashed) -->
  <path d="M492,85 L492,185 L310,185 L310,235" fill="none" stroke="#ef4444" stroke-width="2.5" stroke-dasharray="6,5" marker-end="url(#arr-red)" />

  <!-- 2. "Feed to KB" (Red Dashed from Runtime to KB with Firewall) -->
  <path d="M260,225 L260,180 L455,180" fill="none" stroke="#ef4444" stroke-width="2.5" stroke-dasharray="6,5" marker-end="url(#arr-red)" />
  <text x="365" y="172" font-size="12" font-weight="800" fill="#0f172a" text-anchor="middle">Feed to KB</text>
  <!-- Firewall Icon on Path -->
  <g transform="translate(405, 166)">
    <rect x="0" y="0" width="24" height="22" rx="4" fill="#dc2626" />
    <path d="M12,3 L20,7 L20,13 C20,18 12,20 12,20 C12,20 4,18 4,13 L4,7 Z" fill="#ffffff" stroke="#991b1b" stroke-width="1.2" />
    <path d="M12,8 L12,14 M9,11 L15,11" stroke="#dc2626" stroke-width="1.5" stroke-linecap="round" />
  </g>

  <!-- 3. "Fetch from KB" (Red Dashed from KB to Runtime Engine) -->
  <path d="M455,290 L320,290 L320,260" fill="none" stroke="#ef4444" stroke-width="2.5" stroke-dasharray="6,5" marker-end="url(#arr-red)" />
  <text x="385" y="282" font-size="12" font-weight="800" fill="#0f172a" text-anchor="middle">Fetch from KB</text>

  <!-- 4. "Invoke AI" (Red Dashed from Runtime to AI-Reasoning) -->
  <path d="M305,310 L305,455 L455,455" fill="none" stroke="#ef4444" stroke-width="2.5" stroke-dasharray="6,5" marker-end="url(#arr-red)" />
  <text x="375" y="447" font-size="12" font-weight="800" fill="#0f172a" text-anchor="middle">Invoke AI</text>

  <!-- 5. "AI Response" (Green Dashed from AI-Reasoning back to Runtime) -->
  <path d="M455,565 L265,565 L265,355" fill="none" stroke="#16a34a" stroke-width="2.5" stroke-dasharray="6,5" marker-end="url(#arr-green)" />
  <text x="365" y="557" font-size="12" font-weight="800" fill="#16a34a" text-anchor="middle">AI Response</text>

</svg>
